<svg width="19" height="18" viewBox="0 0 19 18" fill="none" xmlns="http://www.w3.org/2000/svg">
<path d="M10.3333 10.7507L5.33333 10.75M10.3333 10.7507L8.25 8.5625M10.3333 10.7507L8.25 12.9375M17 9V8.3C17 7.31991 17 6.82986 16.8183 6.45552C16.6586 6.12623 16.4036 5.85851 16.09 5.69074C15.7335 5.5 15.2667 5.5 14.3333 5.5H2M17 9V12.5M17 9H15.3333C14.4128 9 13.6667 9.78348 13.6667 10.75C13.6667 11.7165 14.4128 12.5 15.3333 12.5H17M2 5.5V13.2C2 14.1801 2 14.6702 2.18166 15.0445C2.34144 15.3738 2.59641 15.6415 2.91002 15.8092C3.26653 16 3.73325 16 4.66667 16H14.3333C15.2667 16 15.7335 16 16.09 15.8092C16.4036 15.6415 16.6586 15.3738 16.8183 15.0445C17 14.6702 17 14.1801 17 13.2V12.5M2 5.5V4.8C2 3.81991 2 3.32986 2.18166 2.95552C2.34144 2.62623 2.59641 2.35851 2.91002 2.19074C3.26653 2 3.73324 2 4.66667 2H11.8333C12.7667 2 13.2335 2 13.59 2.19074C13.9036 2.35851 14.1586 2.62623 14.3183 2.95552C14.5 3.32986 14.5 3.81991 14.5 4.8V5.5" stroke="#307777" stroke-width="1.5" stroke-linecap="round" stroke-linejoin="round"/>
</svg>
