<svg width="57" height="57" viewBox="0 0 57 57" fill="none" xmlns="http://www.w3.org/2000/svg">
<g filter="url(#filter0_d_180_518)">
<rect x="12" y="12" width="33" height="33" rx="16.5" fill="#307777"/>
<circle cx="28.5" cy="26.125" r="0.983333" stroke="white" stroke-width="1.2" stroke-linecap="round"/>
<path d="M31.6067 25.6333C31.7371 25.4075 31.9519 25.2427 32.2038 25.1752C32.4557 25.1077 32.7241 25.143 32.95 25.2734C33.1759 25.4038 33.3407 25.6186 33.4082 25.8705C33.4757 26.1224 33.4403 26.3908 33.3099 26.6167C33.1795 26.8425 32.9647 27.0073 32.7128 27.0748C32.4609 27.1423 32.1925 27.107 31.9667 26.9766C31.7408 26.8462 31.576 26.6314 31.5085 26.3795C31.441 26.1276 31.4763 25.8592 31.6067 25.6333L31.6067 25.6333Z" stroke="white" stroke-width="1.2"/>
<path d="M23.6901 25.6333C23.8205 25.4075 24.0352 25.2427 24.2871 25.1752C24.5391 25.1077 24.8075 25.143 25.0333 25.2734C25.2592 25.4038 25.424 25.6186 25.4915 25.8705C25.559 26.1224 25.5236 26.3908 25.3932 26.6167C25.2628 26.8425 25.0481 27.0073 24.7962 27.0748C24.5442 27.1423 24.2758 27.107 24.05 26.9766C23.8241 26.8462 23.6593 26.6314 23.5918 26.3795C23.5243 26.1276 23.5597 25.8592 23.6901 25.6333L23.6901 25.6333Z" stroke="white" stroke-width="1.2"/>
<path d="M35.0675 31.0787L34.492 31.2484L35.0675 31.0787ZM30.1625 29.4385L29.8137 28.9502L29.1748 29.4067L29.783 29.9032L30.1625 29.4385ZM31.1285 31.0751L31.7093 30.9247L31.1285 31.0751ZM34.2291 31.4625H30.2708V32.6625H34.2291V31.4625ZM34.492 31.2484C34.502 31.2822 34.4997 31.303 34.4967 31.3157C34.4933 31.33 34.4849 31.3489 34.466 31.3702C34.4259 31.4152 34.3435 31.4625 34.2291 31.4625V32.6625C34.667 32.6625 35.0819 32.4828 35.362 32.1684C35.6505 31.8445 35.7837 31.3861 35.643 30.9091L34.492 31.2484ZM32.0625 29.4958C32.9206 29.4958 33.455 29.7608 33.8036 30.0807C34.1649 30.4123 34.3738 30.8474 34.492 31.2484L35.643 30.9091C35.4872 30.3805 35.1897 29.7241 34.615 29.1966C34.0276 28.6575 33.1965 28.2958 32.0625 28.2958V29.4958ZM30.5113 29.9267C30.8514 29.6837 31.3404 29.4958 32.0625 29.4958V28.2958C31.1176 28.2958 30.3785 28.5467 29.8137 28.9502L30.5113 29.9267ZM29.783 29.9032C30.1918 30.237 30.4231 30.7445 30.5476 31.2255L31.7093 30.9247C31.5543 30.3257 31.2314 29.5366 30.5419 28.9737L29.783 29.9032ZM30.5476 31.2255C30.5629 31.2844 30.5502 31.3264 30.5135 31.367C30.4696 31.4156 30.385 31.4625 30.2708 31.4625V32.6625C31.1132 32.6625 31.9702 31.9326 31.7093 30.9247L30.5476 31.2255Z" fill="white"/>
<path d="M26.8375 29.4384L27.217 29.9032L27.8251 29.4066L27.1863 28.9502L26.8375 29.4384ZM21.9324 31.0787L22.508 31.2484V31.2484L21.9324 31.0787ZM25.8715 31.0751L25.2906 30.9247L25.2906 30.9247L25.8715 31.0751ZM24.9375 29.4958C25.6596 29.4958 26.1486 29.6837 26.4887 29.9267L27.1863 28.9502C26.6215 28.5467 25.8823 28.2958 24.9375 28.2958V29.4958ZM22.508 31.2484C22.6262 30.8474 22.8351 30.4123 23.1964 30.0807C23.545 29.7608 24.0794 29.4958 24.9375 29.4958V28.2958C23.8035 28.2958 22.9724 28.6575 22.385 29.1966C21.8103 29.7241 21.5128 30.3805 21.3569 30.9091L22.508 31.2484ZM22.7709 31.4625C22.6564 31.4625 22.5741 31.4152 22.534 31.3702C22.515 31.3489 22.5067 31.33 22.5033 31.3157C22.5002 31.303 22.498 31.2822 22.508 31.2484L21.3569 30.9091C21.2163 31.3861 21.3494 31.8445 21.6379 32.1684C21.918 32.4828 22.333 32.6625 22.7709 32.6625V31.4625ZM26.7292 31.4625H22.7709V32.6625H26.7292V31.4625ZM26.7292 31.4625C26.615 31.4625 26.5303 31.4156 26.4865 31.367C26.4497 31.3264 26.4371 31.2844 26.4523 31.2255L25.2906 30.9247C25.0297 31.9326 25.8868 32.6625 26.7292 32.6625V31.4625ZM26.4523 31.2255C26.5768 30.7445 26.8081 30.237 27.217 29.9032L26.458 28.9737C25.7685 29.5366 25.4457 30.3257 25.2906 30.9247L26.4523 31.2255Z" fill="white"/>
<path d="M28.5 28.8958C30.2409 28.8958 30.888 30.1458 31.1285 31.0751C31.2669 31.6098 30.8231 32.0625 30.2709 32.0625H26.7292C26.1769 32.0625 25.7331 31.6098 25.8715 31.0751C26.1121 30.1458 26.7592 28.8958 28.5 28.8958Z" stroke="white" stroke-width="1.2" stroke-linecap="round"/>
<path d="M33.6458 36.0208H34.5208C35.3492 36.0208 36.0208 35.3493 36.0208 34.5208V33.6458" stroke="white" stroke-width="1.2" stroke-linecap="round"/>
<path d="M33.6458 20.9792H34.5208C35.3492 20.9792 36.0208 21.6507 36.0208 22.4792V23.3542" stroke="white" stroke-width="1.2" stroke-linecap="round"/>
<path d="M23.3542 36.0208H22.4792C21.6508 36.0208 20.9792 35.3493 20.9792 34.5208V33.6458" stroke="white" stroke-width="1.2" stroke-linecap="round"/>
<path d="M23.3542 20.9792H22.4792C21.6508 20.9792 20.9792 21.6507 20.9792 22.4792V23.3542" stroke="white" stroke-width="1.2" stroke-linecap="round"/>
</g>
<defs>
<filter id="filter0_d_180_518" x="0" y="0" width="57" height="57" filterUnits="userSpaceOnUse" color-interpolation-filters="sRGB">
<feFlood flood-opacity="0" result="BackgroundImageFix"/>
<feColorMatrix in="SourceAlpha" type="matrix" values="0 0 0 0 0 0 0 0 0 0 0 0 0 0 0 0 0 0 127 0" result="hardAlpha"/>
<feOffset/>
<feGaussianBlur stdDeviation="6"/>
<feComposite in2="hardAlpha" operator="out"/>
<feColorMatrix type="matrix" values="0 0 0 0 0.721875 0 0 0 0 0.875 0 0 0 0 0.756196 0 0 0 0.47 0"/>
<feBlend mode="normal" in2="BackgroundImageFix" result="effect1_dropShadow_180_518"/>
<feBlend mode="normal" in="SourceGraphic" in2="effect1_dropShadow_180_518" result="shape"/>
</filter>
</defs>
</svg>
