<svg width="57" height="57" viewBox="0 0 57 57" fill="none" xmlns="http://www.w3.org/2000/svg">
<g filter="url(#filter0_d_2_1774)">
<rect x="12" y="12" width="33" height="33" rx="16.5" fill="#307777"/>
<path d="M21.6667 25.9902C21.6667 25.1727 21.6667 24.7639 21.8189 24.3964C21.9712 24.0288 22.2602 23.7398 22.8383 23.1617L23.2451 22.7549C23.8232 22.1768 24.1122 21.8878 24.4797 21.7356C24.8473 21.5833 25.256 21.5833 26.0735 21.5833H31.9265C32.744 21.5833 33.1528 21.5833 33.5203 21.7356C33.8878 21.8878 34.1769 22.1768 34.7549 22.7549L35.1618 23.1617C35.7398 23.7398 36.0289 24.0288 36.1811 24.3964C36.3334 24.7639 36.3334 25.1727 36.3334 25.9902V31.3333C36.3334 33.2189 36.3334 34.1617 35.7476 34.7475C35.1618 35.3333 34.219 35.3333 32.3334 35.3333H25.6667C23.7811 35.3333 22.8383 35.3333 22.2525 34.7475C21.6667 34.1617 21.6667 33.2189 21.6667 31.3333V25.9902Z" stroke="white"/>
<path d="M21.6667 26.1666H36.3334" stroke="white" stroke-linecap="round"/>
<path d="M31.5966 25.25L26.4022 25.25C26.1861 25.25 26.0781 25.25 26.011 25.3171C25.9438 25.3842 25.9438 25.4923 25.9438 25.7083L25.9438 29.5278C25.9438 30.2289 25.9438 30.5794 26.0345 30.7678C26.2369 31.1884 26.723 31.3897 27.1635 31.2354C27.3608 31.1663 27.6087 30.9185 28.1045 30.4227C28.3341 30.1931 28.4489 30.0783 28.5709 30.0138C28.839 29.872 29.1598 29.872 29.4279 30.0138C29.5499 30.0783 29.6648 30.1931 29.8944 30.4227C30.3901 30.9185 30.638 31.1663 30.8353 31.2354C31.2758 31.3897 31.7619 31.1884 31.9643 30.7678C32.055 30.5794 32.055 30.2289 32.055 29.5278V25.7083C32.055 25.4923 32.055 25.3842 31.9878 25.3171C31.9207 25.25 31.8127 25.25 31.5966 25.25Z" fill="white"/>
</g>
<defs>
<filter id="filter0_d_2_1774" x="0" y="0" width="57" height="57" filterUnits="userSpaceOnUse" color-interpolation-filters="sRGB">
<feFlood flood-opacity="0" result="BackgroundImageFix"/>
<feColorMatrix in="SourceAlpha" type="matrix" values="0 0 0 0 0 0 0 0 0 0 0 0 0 0 0 0 0 0 127 0" result="hardAlpha"/>
<feOffset/>
<feGaussianBlur stdDeviation="6"/>
<feComposite in2="hardAlpha" operator="out"/>
<feColorMatrix type="matrix" values="0 0 0 0 0.721875 0 0 0 0 0.875 0 0 0 0 0.756196 0 0 0 0.47 0"/>
<feBlend mode="normal" in2="BackgroundImageFix" result="effect1_dropShadow_2_1774"/>
<feBlend mode="normal" in="SourceGraphic" in2="effect1_dropShadow_2_1774" result="shape"/>
</filter>
</defs>
</svg>
