<svg width="19" height="19" viewBox="0 0 19 19" fill="none" xmlns="http://www.w3.org/2000/svg">
<path d="M7.52075 10.8854C7.52075 11.6533 8.1145 12.2708 8.84284 12.2708H10.3312C10.9645 12.2708 11.4791 11.7325 11.4791 11.0596C11.4791 10.3392 11.1624 10.0779 10.6953 9.91168L8.31242 9.08043C7.84534 8.91418 7.52868 8.66084 7.52868 7.93251C7.52868 7.2675 8.04325 6.72125 8.67659 6.72125H10.1649C10.8933 6.72125 11.487 7.33875 11.487 8.10668" stroke="#393333" stroke-linecap="round" stroke-linejoin="round"/>
<path d="M9.5 5.9375V13.0625" stroke="#393333" stroke-linecap="round" stroke-linejoin="round"/>
<path d="M17.4166 9.49998C17.4166 13.87 13.8699 17.4166 9.49992 17.4166C5.12992 17.4166 1.58325 13.87 1.58325 9.49998C1.58325 5.12998 5.12992 1.58331 9.49992 1.58331" stroke="#393333" stroke-linecap="round" stroke-linejoin="round"/>
<path d="M17.4167 4.75L17.4167 1.58333L14.2501 1.58333" stroke="#393333" stroke-width="1.5" stroke-linecap="round" stroke-linejoin="round"/>
<path d="M13.4584 5.54169L17.4167 1.58335" stroke="#393333" stroke-linecap="round" stroke-linejoin="round"/>
</svg>
