<svg width="57" height="57" viewBox="0 0 57 57" fill="none" xmlns="http://www.w3.org/2000/svg">
    <g filter="url(#filter0_d_2_1737)">
        <rect x="12" y="12" width="33" height="33" rx="16.5" fill="#307777"/>
        <path d="M29.4275 21.375H26.125C24.6322 21.375 23.8858 21.375 23.4221 21.8387C22.9583 22.3025 22.9583 23.0489 22.9583 24.5417V32.4583C22.9583 33.9511 22.9583 34.6975 23.4221 35.1613C23.8858 35.625 24.6322 35.625 26.125 35.625H30.875C32.3678 35.625 33.1142 35.625 33.5779 35.1613C34.0416 34.6975 34.0416 33.9511 34.0416 32.4583V25.9892C34.0416 25.6656 34.0416 25.5038 33.9814 25.3583C33.9211 25.2128 33.8067 25.0984 33.5779 24.8696L30.5471 21.8387C30.3182 21.6099 30.2038 21.4955 30.0584 21.4353C29.9129 21.375 29.7511 21.375 29.4275 21.375Z" stroke="white" stroke-width="1.2"/>
        <path d="M26.125 29.2917L30.875 29.2917" stroke="white" stroke-width="1.2" stroke-linecap="round"/>
        <path d="M26.125 32.4583L29.2917 32.4583" stroke="white" stroke-width="1.2" stroke-linecap="round"/>
        <path d="M29.2917 21.375V24.5417C29.2917 25.2881 29.2917 25.6613 29.5236 25.8931C29.7554 26.125 30.1286 26.125 30.875 26.125H34.0417" stroke="white" stroke-width="1.2"/>
    </g>
    <defs>
        <filter id="filter0_d_2_1737" x="0" y="0" width="57" height="57" filterUnits="userSpaceOnUse" color-interpolation-filters="sRGB">
            <feFlood flood-opacity="0" result="BackgroundImageFix"/>
            <feColorMatrix in="SourceAlpha" type="matrix" values="0 0 0 0 0 0 0 0 0 0 0 0 0 0 0 0 0 0 127 0" result="hardAlpha"/>
            <feOffset/>
            <feGaussianBlur stdDeviation="6"/>
            <feComposite in2="hardAlpha" operator="out"/>
            <feColorMatrix type="matrix" values="0 0 0 0 0.721875 0 0 0 0 0.875 0 0 0 0 0.756196 0 0 0 0.47 0"/>
            <feBlend mode="normal" in2="BackgroundImageFix" result="effect1_dropShadow_2_1737"/>
            <feBlend mode="normal" in="SourceGraphic" in2="effect1_dropShadow_2_1737" result="shape"/>
        </filter>
    </defs>
</svg>
