<svg width="55" height="55" viewBox="0 0 55 55" fill="none" xmlns="http://www.w3.org/2000/svg">
    <path opacity="0.21" fill-rule="evenodd" clip-rule="evenodd" d="M0 27.5V32C0 44.7025 10.2975 55 23 55H27.5H32C44.7025 55 55 44.7025 55 32V27.5V23C55 10.2975 44.7025 0 32 0H27.5H23C10.2975 0 0 10.2975 0 23V27.5Z" fill="#FB9EB2"/>
    <path d="M27.5 11.3125C18.5607 11.3125 11.3125 18.5607 11.3125 27.5C11.3125 36.4393 18.5607 43.6875 27.5 43.6875C36.4393 43.6875 43.6875 36.4393 43.6875 27.5C43.6875 18.5607 36.4393 11.3125 27.5 11.3125ZM27.5 40.9414C20.0783 40.9414 14.0586 34.9217 14.0586 27.5C14.0586 20.0783 20.0783 14.0586 27.5 14.0586C34.9217 14.0586 40.9414 20.0783 40.9414 27.5C40.9414 34.9217 34.9217 40.9414 27.5 40.9414ZM29.2235 26.6617L28.3058 26.4485V21.5959C29.6788 21.7838 30.5279 22.6437 30.6725 23.6988C30.6905 23.8434 30.8134 23.9481 30.9579 23.9481H32.5803C32.7501 23.9481 32.8838 23.8 32.8693 23.6302C32.6489 21.3791 30.7953 19.9338 28.3202 19.6845V18.5029C28.3202 18.3439 28.1901 18.2139 28.0312 18.2139H27.0158C26.8568 18.2139 26.7268 18.3439 26.7268 18.5029V19.6953C24.1686 19.9446 22.1668 21.3574 22.1668 23.9951C22.1668 26.4377 23.9662 27.6156 25.856 28.0673L26.7484 28.2949V33.4511C25.1514 33.2379 24.2553 32.3852 24.071 31.2361C24.0493 31.0988 23.9265 30.9977 23.7855 30.9977H22.1162C21.9464 30.9977 21.8127 31.1422 21.8271 31.312C21.9897 33.2993 23.4965 35.1276 26.7123 35.3625V36.4971C26.7123 36.6561 26.8424 36.7861 27.0014 36.7861H28.0275C28.1865 36.7861 28.3166 36.6561 28.3166 36.4935L28.3094 35.348C31.1386 35.0987 33.162 33.5848 33.162 30.8676C33.1584 28.36 31.5649 27.2398 29.2235 26.6617ZM26.7448 26.0764C26.5425 26.0186 26.3727 25.9644 26.2028 25.8957C24.9815 25.4549 24.4143 24.7431 24.4143 23.8253C24.4143 22.5137 25.4079 21.7657 26.7448 21.5959V26.0764ZM28.3058 33.4619V28.631C28.4178 28.6635 28.5189 28.6888 28.6237 28.7104C30.3328 29.2308 30.9073 29.9534 30.9073 31.0627C30.9073 32.4755 29.845 33.3246 28.3058 33.4619Z" fill="#F93C65"/>
</svg>
