<svg width="55" height="55" viewBox="0 0 55 55" fill="none" xmlns="http://www.w3.org/2000/svg">
    <path opacity="0.21" fill-rule="evenodd" clip-rule="evenodd" d="M0 27.5V32C0 44.7025 10.2975 55 23 55H27.5H32C44.7025 55 55 44.7025 55 32V27.5V23C55 10.2975 44.7025 0 32 0H27.5H23C10.2975 0 0 10.2975 0 23V27.5Z" fill="#4AD991"/>
    <path d="M17.5185 37.4815H38.9074C39.6949 37.4815 40.3333 38.1199 40.3333 38.9074C40.3333 39.6949 39.6949 40.3334 38.9074 40.3334H16.0926C15.305 40.3334 14.6666 39.6949 14.6666 38.9074V16.0926C14.6666 15.3051 15.305 14.6667 16.0926 14.6667C16.8801 14.6667 17.5185 15.3051 17.5185 16.0926V37.4815Z" fill="#4AD991"/>
    <path opacity="0.5" d="M22.8366 31.3271C22.2979 31.9016 21.3956 31.9307 20.821 31.3921C20.2465 30.8535 20.2174 29.9511 20.756 29.3766L26.1032 23.6729C26.6242 23.1173 27.4898 23.0691 28.0691 23.5635L32.2895 27.1648L37.7882 20.1998C38.2762 19.5817 39.1729 19.4762 39.791 19.9641C40.4091 20.4521 40.5146 21.3488 40.0266 21.9669L33.6099 30.0947C33.1087 30.7295 32.1804 30.8208 31.5651 30.2958L27.2531 26.6162L22.8366 31.3271Z" fill="#4AD991"/>
</svg>
