<svg width="55" height="55" viewBox="0 0 55 55" fill="none" xmlns="http://www.w3.org/2000/svg">
    <path opacity="0.3" fill-rule="evenodd" clip-rule="evenodd" d="M0 27.5V32C0 44.7025 10.2975 55 23 55H27.5H32C44.7025 55 55 44.7025 55 32V27.5V23C55 10.2975 44.7025 0 32 0H27.5H23C10.2975 0 0 10.2975 0 23V27.5Z" fill="#FF9066"/>
    <path opacity="0.78" fill-rule="evenodd" clip-rule="evenodd" d="M26.2423 21.8632C26.2623 21.6027 26.4796 21.4016 26.7408 21.4016H27.0475C27.3044 21.4016 27.5195 21.5962 27.5451 21.8518L28.1111 27.5127L32.137 29.8131C32.2928 29.9022 32.3889 30.0678 32.3889 30.2473V30.5247C32.3889 30.8544 32.0754 31.0938 31.7574 31.0071L26.0654 29.4547C25.834 29.3916 25.68 29.1731 25.6984 28.934L26.2423 21.8632Z" fill="#FF9066"/>
    <path opacity="0.901274" fill-rule="evenodd" clip-rule="evenodd" d="M20.8816 13.799C20.6175 13.4843 20.1076 13.6048 20.0122 14.0044L18.5471 20.1469C18.4694 20.4725 18.7275 20.781 19.0617 20.7621L25.3805 20.404C25.7915 20.3807 25.9998 19.8987 25.7353 19.5834L24.1374 17.6792C25.2052 17.3143 26.3375 17.1237 27.5001 17.1237C33.2377 17.1237 37.889 21.775 37.889 27.5126C37.889 33.2502 33.2377 37.9015 27.5001 37.9015C21.7625 37.9015 17.1112 33.2502 17.1112 27.5126C17.1112 26.5494 17.2416 25.606 17.496 24.6993L15.1424 24.0391C14.8325 25.1439 14.6667 26.3089 14.6667 27.5126C14.6667 34.6003 20.4124 40.346 27.5001 40.346C34.5877 40.346 40.3334 34.6003 40.3334 27.5126C40.3334 20.425 34.5877 14.6793 27.5001 14.6793C25.7173 14.6793 24.0194 15.0428 22.4765 15.6998L20.8816 13.799Z" fill="#FF9066"/>
</svg>
