<svg width="279" height="218" viewBox="0 0 279 218" fill="none" xmlns="http://www.w3.org/2000/svg">
<g clip-path="url(#clip0_1_479)">
<path d="M57.838 143.393C45.2418 130.926 39.9218 117.919 42.8575 106.77C46.6249 92.4619 63.3618 82.5692 88.7765 79.6283L88.8703 80.449C63.8094 83.3488 47.3279 93.0194 43.6518 106.981C40.7947 117.832 46.0375 130.554 58.4144 142.804L57.838 143.393Z" fill="#384CFF" fill-opacity="0.4"/>
<path d="M179.369 187.647C163.649 187.647 146.565 185.299 129.597 180.782C108.613 175.197 89.3725 166.766 73.9564 156.401L74.4129 155.715C89.7548 166.029 108.91 174.421 129.807 179.983C148.691 185.01 167.717 187.339 184.821 186.725L184.851 187.55C183.045 187.615 181.217 187.648 179.369 187.647Z" fill="#384CFF" fill-opacity="0.4"/>
<path d="M215.435 182.453L215.172 181.671C229.232 176.891 238.026 169.192 240.603 159.405C243.879 146.962 236.762 132.524 220.562 118.749C204.28 104.904 180.8 93.4165 154.448 86.4024L154.658 85.6039C181.126 92.6488 204.719 104.196 221.092 118.119C237.548 132.111 244.759 146.848 241.397 159.616C238.746 169.684 229.768 177.581 215.435 182.453Z" fill="#384CFF" fill-opacity="0.4"/>
<path d="M86.3306 187.993C55.4402 174.218 31.6369 156.347 19.3057 137.672L19.99 137.215C32.2359 155.761 55.9143 173.526 86.6635 187.238L86.3306 187.993Z" fill="#384CFF" fill-opacity="0.4"/>
<path d="M194.939 211.856C191.752 211.856 188.512 211.784 185.217 211.641L185.252 210.816C209.842 211.886 231.538 208.928 247.999 202.258L248.306 203.025C233.947 208.842 215.645 211.856 194.939 211.856Z" fill="#F0F0F0"/>
<path d="M177.016 80.3689C171.91 78.6976 166.658 77.1415 161.407 75.7436C131.186 67.6997 101.478 64.8437 75.4944 67.4859L75.4118 66.664C101.492 64.0131 131.302 66.8759 161.617 74.9451C166.883 76.347 172.15 77.9076 177.27 79.5837L177.016 80.3689Z" fill="#384CFF" fill-opacity="0.4"/>
<path d="M38.5323 144.632C25.9362 132.164 20.6162 119.158 23.5518 108.009C27.3193 93.7008 44.0561 83.8082 69.4708 80.8672L69.5647 81.688C44.5038 84.5877 28.0223 94.2584 24.3461 108.22C21.489 119.071 26.7318 131.793 39.1087 144.043L38.5323 144.632Z" fill="#384CFF" fill-opacity="0.4"/>
<path d="M160.064 188.886C144.343 188.886 127.26 186.537 110.291 182.021C89.3069 176.436 70.0669 168.005 54.6508 157.64L55.1073 156.954C70.4492 167.268 89.604 175.66 110.501 181.222C129.386 186.249 148.412 188.578 165.516 187.964L165.545 188.789C163.739 188.854 161.912 188.887 160.064 188.886Z" fill="#384CFF" fill-opacity="0.4"/>
<path d="M196.129 183.692L195.866 182.91C209.926 178.13 218.72 170.431 221.297 160.643C224.573 148.201 217.456 133.763 201.256 119.988C184.974 106.143 161.495 94.6554 135.142 87.6413L135.352 86.8428C161.82 93.8877 185.414 105.435 201.787 119.357C218.242 133.35 225.453 148.087 222.092 160.855C219.44 170.923 210.463 178.82 196.129 183.692Z" fill="#384CFF" fill-opacity="0.4"/>
<path d="M67.0249 189.232C36.1345 175.457 12.3312 157.586 -1.90735e-06 138.911L0.684334 138.454C12.9303 157 36.6087 174.765 67.3578 188.477L67.0249 189.232Z" fill="#384CFF" fill-opacity="0.4"/>
<path d="M175.633 213.095C172.447 213.095 169.206 213.023 165.911 212.88L165.946 212.055C190.536 213.125 212.232 210.167 228.693 203.497L229 204.264C214.641 210.081 196.339 213.095 175.633 213.095Z" fill="#F0F0F0"/>
<path d="M157.71 81.6079C152.604 79.9366 147.353 78.3804 142.101 76.9826C111.88 68.9386 82.1724 66.0826 56.1887 68.7249L56.1061 67.9029C82.1867 65.252 111.996 68.1149 142.311 76.184C147.578 77.5859 152.844 79.1465 157.964 80.8226L157.71 81.6079Z" fill="#384CFF" fill-opacity="0.4"/>
<path d="M20.9446 123.812C20.1176 122.879 19.6472 121.681 19.6177 120.432C19.5881 119.182 20.0012 117.963 20.7832 116.992C20.9421 116.796 21.2525 117.035 21.0934 117.231C20.3635 118.134 19.9788 119.27 20.0087 120.433C20.0386 121.597 20.4812 122.711 21.2565 123.575C21.4247 123.763 21.1119 123.999 20.9446 123.812H20.9446Z" fill="white"/>
<path d="M16.2756 133.525C18.811 133.695 21.3166 132.897 23.293 131.291C23.4887 131.132 23.7242 131.446 23.5287 131.605C21.469 133.272 18.8598 134.097 16.2218 133.915C15.9704 133.897 16.0256 133.508 16.2756 133.525Z" fill="white"/>
<path d="M30.1848 117.124C30.43 117.552 30.7771 117.912 31.1949 118.172C31.6127 118.432 32.0882 118.583 32.5786 118.612C32.8301 118.627 32.7746 119.016 32.5248 119.002C31.9831 118.967 31.4582 118.799 30.9959 118.513C30.5337 118.227 30.1481 117.831 29.8729 117.361C29.8433 117.319 29.8308 117.267 29.8378 117.216C29.8449 117.165 29.871 117.118 29.911 117.086C29.9524 117.055 30.0044 117.041 30.0557 117.048C30.107 117.055 30.1533 117.083 30.1848 117.124Z" fill="white"/>
<path d="M49.8402 141.985C43.1032 139.053 35.6185 138.33 28.4492 139.918C26.8998 140.232 25.4094 140.79 24.0327 141.571C22.7162 142.375 21.6379 143.52 20.9099 144.885C20.2057 146.144 19.6303 147.514 18.634 148.579C18.1159 149.116 17.4906 149.537 16.7992 149.815C16.1078 150.093 15.3659 150.22 14.622 150.189C12.7666 150.16 11.0321 149.463 9.35946 148.722C7.50231 147.899 5.58627 147.015 3.50996 147.094C3.25839 147.104 3.2583 146.711 3.50949 146.701C7.12191 146.563 10.0544 149.156 13.5286 149.7C15.1496 149.955 16.8567 149.719 18.0976 148.561C19.1826 147.548 19.7771 146.136 20.4792 144.855C21.17 143.513 22.1771 142.361 23.4126 141.5C24.7452 140.651 26.2118 140.037 27.7496 139.683C31.1989 138.83 34.7602 138.527 38.3029 138.786C42.3479 139.06 46.3165 140.027 50.0371 141.646C50.2674 141.746 50.069 142.085 49.8402 141.985Z" fill="white"/>
<path d="M30.7277 139.27C30.626 138.024 30.968 136.783 31.6925 135.767C32.417 134.752 33.477 134.029 34.6831 133.726C34.9273 133.666 35.032 134.045 34.7875 134.105C33.6638 134.385 32.6765 135.059 32.0038 136.006C31.331 136.953 31.0171 138.11 31.1186 139.269C31.1404 139.521 30.7494 139.52 30.7277 139.27Z" fill="white"/>
<path d="M21.1833 144.199C23.1063 145.869 25.5846 146.749 28.1241 146.663C28.3757 146.654 28.3759 147.047 28.1246 147.056C25.4817 147.14 22.9045 146.219 20.9073 144.477C20.717 144.311 20.9941 144.034 21.1833 144.199Z" fill="white"/>
<path d="M42.1105 139.523C42.05 140.013 42.1115 140.511 42.2895 140.971C42.4675 141.432 42.7565 141.84 43.1305 142.161C43.3227 142.324 43.0454 142.601 42.8544 142.439C42.4429 142.083 42.1243 141.631 41.9265 141.123C41.7286 140.615 41.6576 140.066 41.7196 139.524C41.7212 139.472 41.7422 139.423 41.7785 139.386C41.8147 139.35 41.8635 139.328 41.9148 139.327C41.9665 139.327 42.0161 139.348 42.0528 139.384C42.0894 139.421 42.1102 139.471 42.1105 139.523H42.1105Z" fill="white"/>
<path d="M225.588 161.384C231.728 165.43 236.443 171.319 239.064 178.214C239.654 179.688 240.01 181.247 240.117 182.832C240.173 184.38 239.815 185.915 239.081 187.276C238.422 188.56 237.6 189.796 237.262 191.218C237.1 191.949 237.094 192.706 237.243 193.439C237.393 194.172 237.695 194.866 238.129 195.473C239.173 197.016 240.706 198.09 242.241 199.087C243.945 200.195 245.733 201.318 246.809 203.106C246.939 203.322 247.266 203.106 247.135 202.89C245.264 199.78 241.498 198.742 239.136 196.123C238.034 194.901 237.292 193.338 237.572 191.659C237.817 190.191 238.664 188.916 239.342 187.622C240.078 186.304 240.481 184.825 240.517 183.314C240.49 181.728 240.195 180.159 239.644 178.672C238.457 175.306 236.75 172.149 234.588 169.316C232.137 166.069 229.152 163.267 225.762 161.031C225.552 160.893 225.38 161.246 225.588 161.384Z" fill="white"/>
<path d="M238.35 175.944C239.441 175.345 240.284 174.375 240.73 173.209C241.175 172.042 241.194 170.754 240.782 169.575C240.698 169.337 240.325 169.457 240.41 169.696C240.795 170.793 240.778 171.993 240.361 173.078C239.944 174.164 239.154 175.064 238.135 175.615C237.914 175.736 238.13 176.064 238.35 175.944Z" fill="white"/>
<path d="M239.5 186.67C237.056 185.973 234.962 184.375 233.638 182.195C233.507 181.978 233.18 182.194 233.311 182.41C234.694 184.676 236.875 186.335 239.421 187.055C239.663 187.123 239.741 186.738 239.5 186.67Z" fill="white"/>
<path d="M231.883 166.523C231.509 166.843 231.062 167.065 230.581 167.168C230.101 167.272 229.602 167.254 229.131 167.116C228.889 167.044 228.811 167.429 229.051 167.5C229.573 167.65 230.124 167.67 230.655 167.557C231.186 167.443 231.681 167.201 232.097 166.851C232.139 166.821 232.169 166.777 232.179 166.726C232.189 166.676 232.18 166.623 232.154 166.579C232.125 166.536 232.08 166.505 232.03 166.495C231.979 166.484 231.926 166.494 231.883 166.523Z" fill="white"/>
<path d="M223.968 187.197C224.481 186.058 224.573 184.773 224.231 183.572C223.888 182.371 223.131 181.331 222.096 180.639C221.886 180.5 221.661 180.821 221.871 180.961C222.836 181.603 223.541 182.572 223.858 183.691C224.175 184.81 224.084 186.006 223.6 187.064C223.496 187.294 223.864 187.425 223.968 187.197H223.968Z" fill="white"/>
<path d="M213.163 183.589C213.056 184.071 212.832 184.519 212.51 184.892C212.189 185.265 211.78 185.553 211.321 185.728C211.085 185.817 211.254 186.172 211.488 186.083C211.994 185.887 212.445 185.569 212.802 185.158C213.158 184.746 213.408 184.253 213.531 183.721C213.547 183.672 213.543 183.619 213.522 183.572C213.5 183.525 213.461 183.489 213.413 183.47C213.364 183.453 213.311 183.455 213.264 183.478C213.217 183.5 213.181 183.54 213.163 183.589V183.589Z" fill="white"/>
<path d="M180.614 205.198C182.429 205.198 183.9 203.719 183.9 201.894C183.9 200.069 182.429 198.59 180.614 198.59C178.799 198.59 177.328 200.069 177.328 201.894C177.328 203.719 178.799 205.198 180.614 205.198Z" fill="#FD6584"/>
<path d="M192.254 148.925C194.069 148.925 195.54 147.446 195.54 145.622C195.54 143.797 194.069 142.318 192.254 142.318C190.439 142.318 188.968 143.797 188.968 145.622C188.968 147.446 190.439 148.925 192.254 148.925Z" fill="#E6E6E6"/>
<path d="M62.2464 180.715C62.2464 181.556 62.2739 182.397 62.3325 183.231C62.3944 184.228 62.5011 185.217 62.6457 186.2C63.1316 189.51 64.0603 192.738 65.4065 195.798C65.4753 195.95 65.5441 196.102 65.613 196.255L65.7163 196.483C65.7507 196.559 65.7886 196.635 65.823 196.708C65.8712 196.808 65.9159 196.905 65.9641 197.002C66.0226 197.123 66.0812 197.244 66.1431 197.366C66.15 197.379 66.1569 197.397 66.1672 197.414C66.2189 197.518 66.2671 197.618 66.3221 197.722C66.3323 197.745 66.3438 197.767 66.3566 197.788C66.4151 197.905 66.477 198.027 66.539 198.144C66.6079 198.269 66.6733 198.397 66.7421 198.522C66.9073 198.83 67.0794 199.134 67.255 199.439C67.3066 199.529 67.3583 199.619 67.4134 199.709C67.4615 199.792 67.5097 199.875 67.5614 199.958C67.5958 200.013 67.6302 200.072 67.6646 200.127C67.7197 200.221 67.7748 200.311 67.8333 200.404C67.9607 200.609 68.0915 200.813 68.2189 201.017H68.2223C68.2808 201.11 68.3428 201.204 68.4047 201.294V201.297C68.5872 201.574 68.7765 201.851 68.9659 202.124C68.9663 202.124 68.9668 202.124 68.9672 202.125C68.9676 202.125 68.968 202.125 68.9683 202.125C68.9686 202.126 68.9689 202.126 68.9691 202.127C68.9692 202.127 68.9693 202.127 68.9693 202.128C69.1208 202.349 69.2791 202.564 69.434 202.779V202.782C69.5373 202.917 69.6371 203.055 69.7404 203.19C69.823 203.301 69.9091 203.415 69.9951 203.526C70.0123 203.55 70.033 203.571 70.0502 203.595V203.599C70.0743 203.63 70.0984 203.658 70.1225 203.689C70.4874 204.159 70.8637 204.62 71.2516 205.07L71.3135 205.142C71.3342 205.167 71.3583 205.191 71.3789 205.219C71.4134 205.257 71.4443 205.295 71.4788 205.333C71.5097 205.371 71.5442 205.409 71.5786 205.447C73.6003 207.737 75.8927 209.77 78.4048 211.5C78.7387 211.732 79.0795 211.957 79.4203 212.175C79.5063 212.231 79.5924 212.286 79.6784 212.338C79.7025 212.355 79.7301 212.372 79.7542 212.39C79.8024 212.417 79.8471 212.445 79.8953 212.476C79.9401 212.504 79.9848 212.532 80.033 212.559C80.2154 212.674 80.4013 212.784 80.5872 212.895C80.632 212.923 80.6802 212.95 80.7284 212.978C80.7731 213.002 80.8213 213.03 80.8695 213.058C80.8695 213.061 80.8695 213.061 80.8729 213.061H80.8764V213.065H80.8798C81.1105 213.2 81.3445 213.331 81.5821 213.459C81.7094 213.528 81.8402 213.601 81.971 213.667C82.2671 213.83 82.5666 213.985 82.8661 214.134C82.9728 214.186 83.0829 214.238 83.1896 214.293C83.2791 214.335 83.3686 214.38 83.4581 214.421C83.4857 214.435 83.5098 214.446 83.5339 214.459C83.6096 214.494 83.6819 214.529 83.7576 214.563C83.8402 214.601 83.9228 214.639 84.002 214.677C84.095 214.719 84.1845 214.761 84.2774 214.799C84.6216 214.954 84.9693 215.103 85.317 215.245C86.563 215.759 87.8363 216.202 89.1311 216.574C89.1896 216.591 89.2516 216.609 89.3136 216.626C89.8678 216.782 90.4255 216.924 90.9866 217.052C91.9676 217.28 92.9579 217.467 93.9573 217.612H93.9642C94.0847 217.63 94.2017 217.647 94.3222 217.664C94.3325 217.664 94.3428 217.668 94.3566 217.668C94.3566 217.671 94.3566 217.671 94.3601 217.668C94.4909 217.685 94.6251 217.702 94.7559 217.72C94.7649 217.722 94.7742 217.723 94.7835 217.723C94.9074 217.74 95.0348 217.754 95.1587 217.768C95.2929 217.782 95.4272 217.796 95.5614 217.81C95.6647 217.82 95.768 217.83 95.8713 217.841C95.8801 217.844 95.8895 217.845 95.8988 217.844C95.9917 217.851 96.0847 217.862 96.1776 217.869H96.1914C96.2706 217.875 96.3532 217.882 96.4324 217.889C97.3928 217.965 98.3566 218 99.3343 218C100.391 218 101.441 217.958 102.477 217.869H102.487C102.711 217.848 102.932 217.827 103.152 217.806C103.21 217.799 103.265 217.796 103.324 217.789C103.334 217.789 103.348 217.785 103.358 217.785C103.376 217.782 103.393 217.782 103.413 217.779C103.423 217.779 103.432 217.778 103.441 217.775C103.517 217.768 103.592 217.758 103.672 217.751L103.93 217.72C104.016 217.709 104.102 217.695 104.188 217.685C104.209 217.682 104.226 217.682 104.246 217.678C104.308 217.671 104.37 217.661 104.432 217.65C104.463 217.647 104.494 217.644 104.522 217.64C104.584 217.63 104.642 217.623 104.704 217.612H104.708C106.597 217.339 108.461 216.917 110.284 216.349C110.381 216.318 110.477 216.29 110.574 216.259C110.577 216.259 110.58 216.256 110.584 216.256C110.611 216.245 110.642 216.238 110.67 216.228C110.928 216.145 111.183 216.058 111.438 215.968C111.789 215.851 112.136 215.723 112.484 215.591C112.577 215.553 112.67 215.519 112.763 215.48C112.952 215.408 113.138 215.332 113.324 215.255C113.641 215.127 113.957 214.992 114.271 214.854C114.563 214.722 114.852 214.591 115.142 214.452C115.148 214.449 115.159 214.449 115.166 214.442C115.231 214.411 115.296 214.38 115.358 214.349H115.362C116.947 213.584 118.476 212.706 119.937 211.722C120.405 211.407 120.866 211.081 121.321 210.746C121.685 210.472 122.043 210.195 122.401 209.912C124.168 208.499 125.803 206.928 127.286 205.219V205.215C127.393 205.097 127.493 204.976 127.596 204.855C127.613 204.838 127.627 204.821 127.641 204.807C127.706 204.727 127.768 204.651 127.833 204.575V204.571C127.92 204.471 128.006 204.367 128.088 204.263C128.109 204.239 128.126 204.218 128.143 204.198V204.194C128.212 204.111 128.277 204.028 128.346 203.941C128.381 203.9 128.412 203.858 128.446 203.817V203.813C128.649 203.557 128.845 203.301 129.042 203.038C129.093 202.969 129.145 202.896 129.2 202.824C129.448 202.488 129.689 202.145 129.923 201.803V201.799C130.012 201.671 130.098 201.54 130.188 201.411C130.274 201.28 130.36 201.148 130.446 201.017C130.532 200.878 130.622 200.743 130.708 200.605L130.718 200.584C130.804 200.453 130.89 200.314 130.973 200.179C131.038 200.069 131.104 199.961 131.169 199.854C131.21 199.781 131.255 199.709 131.296 199.633C131.313 199.609 131.328 199.585 131.341 199.56C131.438 199.39 131.534 199.221 131.63 199.051C131.744 198.854 131.854 198.653 131.964 198.452C132.006 198.369 132.05 198.286 132.095 198.203C132.112 198.175 132.126 198.148 132.14 198.12C132.191 198.023 132.243 197.923 132.291 197.822C132.343 197.726 132.395 197.625 132.446 197.525C132.494 197.428 132.546 197.327 132.594 197.227C132.632 197.151 132.666 197.075 132.704 196.999C132.707 196.993 132.71 196.987 132.715 196.981C132.732 196.943 132.749 196.909 132.763 196.874C132.767 196.869 132.771 196.863 132.773 196.857C132.811 196.781 132.845 196.701 132.883 196.625C132.932 196.525 132.976 196.421 133.024 196.32C133.055 196.251 133.09 196.178 133.121 196.106C133.166 196.005 133.214 195.905 133.255 195.801C133.303 195.697 133.348 195.594 133.393 195.486C133.406 195.46 133.417 195.434 133.427 195.407C133.451 195.358 133.469 195.31 133.489 195.261C133.544 195.133 133.599 195.002 133.651 194.874C133.713 194.728 133.771 194.579 133.827 194.434C133.882 194.299 133.933 194.161 133.985 194.022L134.006 193.974C134.808 191.85 135.416 189.657 135.823 187.422V187.419C136.053 186.143 136.217 184.856 136.315 183.563C136.319 183.49 136.326 183.421 136.329 183.352C136.391 182.476 136.419 181.597 136.419 180.715C136.419 180.324 136.412 179.936 136.401 179.548C136.161 171.441 133.286 163.637 128.216 157.329C128.105 157.19 127.995 157.052 127.882 156.913C127.768 156.775 127.651 156.64 127.537 156.505C123.764 152.062 119.005 148.572 113.643 146.318C108.282 144.063 102.469 143.107 96.6732 143.525C90.8769 143.944 85.2596 145.726 80.2741 148.728C75.2885 151.73 71.0743 155.867 67.971 160.807C67.8024 161.077 67.6337 161.35 67.4719 161.624C67.3067 161.901 67.1483 162.178 66.99 162.458C63.8714 168.031 62.2375 174.32 62.2464 180.715Z" fill="#F2F2F2" fill-opacity="0.5"/>
<path d="M97.8602 156.326C103.959 157.9 110.208 158.806 116.5 159.031C117.451 159.083 118.405 159.077 119.356 159.012C121.445 158.835 123.234 158.175 125.227 157.814C126.185 157.641 127.253 157.515 128.217 157.328C127.994 157.05 127.768 156.775 127.537 156.504C125.457 156.68 123.344 157.259 121.24 157.528C117.661 157.985 113.652 157.475 110.94 156.216C109.624 155.605 108.616 154.842 107.304 154.229C107.126 154.136 106.933 154.077 106.734 154.053C106.356 154.041 105.982 154.139 105.657 154.334C103.457 155.45 100.263 156.358 97.2979 155.859C97.0769 156.032 97.4967 156.23 97.8602 156.326Z" fill="white"/>
<path d="M84.7398 160.256C84.7127 160.251 84.6855 160.247 84.6584 160.243C84.7724 160.172 84.8796 160.09 84.9789 160L84.7398 160.256Z" fill="white"/>
<path d="M66.9907 162.459C68.229 162.559 69.4738 162.633 70.7251 162.682C71.6766 162.733 72.6303 162.727 73.5809 162.662C75.6701 162.484 77.4596 161.825 79.4526 161.464C81.2791 161.134 83.4987 160.975 84.6584 160.243C81.6611 159.721 78.5555 160.783 75.4648 161.178C72.9647 161.487 70.4304 161.361 67.9728 160.806C67.6307 161.347 67.3033 161.898 66.9907 162.459Z" fill="white"/>
<path d="M81.971 213.667C82.2671 213.83 82.5666 213.985 82.8661 214.134C82.9728 214.186 83.0829 214.238 83.1896 214.293C83.2791 214.335 83.3686 214.38 83.4581 214.421C83.4857 214.435 83.5098 214.446 83.5339 214.459C83.6096 214.494 83.6819 214.529 83.7576 214.563C83.8402 214.601 83.9229 214.639 84.002 214.677C84.095 214.719 84.1845 214.761 84.2774 214.799C84.6216 214.954 84.9693 215.103 85.317 215.245C86.563 215.759 87.8363 216.202 89.1311 216.574C89.1896 216.591 89.2516 216.609 89.3136 216.626C89.8678 216.782 90.4255 216.924 90.9866 217.052C91.9676 217.28 92.9579 217.467 93.9573 217.612H93.9642C94.0847 217.63 94.2017 217.647 94.3222 217.664C94.3325 217.664 94.3429 217.668 94.3566 217.668C94.3566 217.671 94.3566 217.671 94.3601 217.668C94.4909 217.685 94.6251 217.702 94.7559 217.72C94.7649 217.722 94.7742 217.724 94.7835 217.723C94.9074 217.74 95.0348 217.754 95.1587 217.768C95.2929 217.782 95.4272 217.796 95.5614 217.81C95.6647 217.82 95.768 217.83 95.8713 217.841C95.8801 217.844 95.8895 217.845 95.8988 217.844C95.9917 217.851 96.0847 217.862 96.1776 217.869H96.1914C96.2706 217.875 96.3532 217.882 96.4324 217.889C97.3928 217.965 98.3566 218 99.3342 218C100.391 218 101.441 217.959 102.477 217.869H102.487C102.711 217.848 102.931 217.827 103.152 217.806C103.21 217.799 103.265 217.796 103.324 217.789C103.334 217.789 103.348 217.785 103.358 217.785C103.376 217.782 103.393 217.782 103.413 217.779C103.423 217.779 103.432 217.778 103.441 217.775C103.517 217.768 103.592 217.758 103.672 217.751L103.93 217.72C104.016 217.709 104.102 217.695 104.188 217.685C104.209 217.682 104.226 217.682 104.246 217.678C104.308 217.671 104.37 217.661 104.432 217.651C104.463 217.647 104.494 217.644 104.522 217.64C104.584 217.63 104.642 217.623 104.704 217.612H104.708C106.597 217.339 108.461 216.917 110.284 216.349C110.381 216.318 110.477 216.29 110.574 216.259C110.129 214.175 109.214 212.222 107.899 210.55C106.584 208.878 104.905 207.532 102.99 206.617C103.464 206.163 103.791 205.577 103.93 204.935C104.019 204.521 104.026 204.093 103.951 203.676C103.875 203.259 103.718 202.861 103.489 202.505C103.042 201.816 102.342 201.333 101.541 201.162L96.4392 200.089C95.618 199.928 94.7668 200.1 94.0706 200.567C93.3744 201.033 92.8896 201.757 92.7215 202.581C92.6695 202.834 92.6464 203.092 92.6527 203.35C87.7404 206.638 84.2051 210.047 81.971 213.667Z" fill="#ABABAB"/>
<path d="M97.0344 198.063C102.904 198.063 107.663 193.279 107.663 187.377C107.663 181.476 102.904 176.691 97.0344 176.691C91.1645 176.691 86.406 181.476 86.406 187.377C86.406 193.279 91.1645 198.063 97.0344 198.063Z" fill="#FFB8B8"/>
<path d="M90.4095 196.591C89.2761 195.812 88.1187 194.316 87.346 193.195C86.3221 191.722 85.6176 190.048 85.2781 188.283C84.9387 186.518 84.9718 184.701 85.3754 182.95C85.5041 182.25 85.8204 181.599 86.2903 181.066C86.7909 180.568 87.6085 180.332 88.2194 180.684C88.0527 180.235 87.9793 179.756 88.0036 179.278C88.028 178.799 88.1496 178.331 88.3611 177.901C88.7905 177.044 89.4128 176.299 90.1784 175.725C91.6428 174.591 93.3851 173.877 95.2205 173.659C97.0559 173.44 98.9159 173.726 100.603 174.484C101.267 174.793 100.176 172.405 100.871 172.635C101.562 172.904 102.329 172.89 103.01 172.597C103.663 172.266 105.83 174.232 105.579 173.541C106.075 173.767 106.506 174.116 106.832 174.555C107.157 174.994 107.367 175.508 107.442 176.051C107.516 176.593 107.453 177.146 107.258 177.657C107.063 178.169 106.743 178.622 106.326 178.976C105.778 179.441 105.093 179.709 104.492 180.104C103.44 180.849 102.695 181.955 102.399 183.213C102.102 184.472 102.274 185.796 102.882 186.937C102.25 186.528 101.557 186.225 100.829 186.039C100.463 185.95 100.082 185.949 99.7166 186.038C99.3511 186.126 99.0119 186.301 98.7271 186.548C98.4892 186.821 98.3095 187.141 98.1989 187.487C98.0884 187.833 98.0494 188.199 98.0844 188.56C98.1082 189.286 98.2798 190 98.2991 190.725C98.3556 192.854 99.4892 196.9 97.848 198.031C96.5529 198.924 91.957 197.653 90.4095 196.591Z" fill="#2F2E41"/>
<path d="M268.636 99.035C268.636 99.8761 268.608 100.717 268.55 101.551C268.488 102.548 268.381 103.538 268.236 104.521C267.751 107.83 266.822 111.059 265.476 114.118C265.407 114.27 265.338 114.423 265.269 114.575L265.166 114.803C265.131 114.88 265.094 114.956 265.059 115.028C265.011 115.129 264.966 115.226 264.918 115.323C264.859 115.444 264.801 115.565 264.739 115.686C264.732 115.7 264.725 115.717 264.715 115.734C264.663 115.838 264.615 115.939 264.56 116.042C264.55 116.065 264.538 116.087 264.526 116.108C264.467 116.226 264.405 116.347 264.343 116.465C264.274 116.589 264.209 116.717 264.14 116.842C263.975 117.15 263.803 117.454 263.627 117.759C263.575 117.849 263.524 117.939 263.469 118.029C263.421 118.112 263.372 118.195 263.321 118.278C263.286 118.334 263.252 118.392 263.217 118.448C263.162 118.541 263.107 118.631 263.049 118.725C262.921 118.929 262.791 119.133 262.663 119.337H262.66C262.601 119.431 262.539 119.524 262.477 119.614V119.618C262.295 119.894 262.106 120.171 261.916 120.445L261.915 120.445L261.914 120.446L261.913 120.447L261.913 120.448C261.761 120.67 261.603 120.884 261.448 121.099V121.102C261.345 121.237 261.245 121.376 261.142 121.511C261.059 121.622 260.973 121.736 260.887 121.846C260.87 121.871 260.849 121.891 260.832 121.916V121.919C260.808 121.95 260.784 121.978 260.76 122.009C260.395 122.48 260.018 122.94 259.631 123.39L259.569 123.463C259.548 123.487 259.524 123.511 259.503 123.539C259.469 123.577 259.438 123.615 259.403 123.653C259.372 123.691 259.338 123.729 259.303 123.767C257.282 126.057 254.989 128.09 252.477 129.821C252.143 130.053 251.803 130.277 251.462 130.496C251.376 130.551 251.29 130.606 251.204 130.658C251.18 130.675 251.152 130.693 251.128 130.71C251.08 130.738 251.035 130.765 250.987 130.797C250.942 130.824 250.897 130.852 250.849 130.88C250.667 130.994 250.481 131.105 250.295 131.215C250.25 131.243 250.202 131.271 250.154 131.299C250.109 131.323 250.061 131.35 250.013 131.378C250.013 131.382 250.013 131.382 250.009 131.382H250.006V131.385H250.002C249.772 131.52 249.538 131.652 249.3 131.78C249.173 131.849 249.042 131.921 248.911 131.987C248.615 132.15 248.316 132.306 248.016 132.454C247.909 132.506 247.799 132.558 247.692 132.614C247.603 132.655 247.513 132.7 247.424 132.742C247.396 132.756 247.372 132.766 247.348 132.78C247.272 132.814 247.2 132.849 247.124 132.884C247.042 132.922 246.959 132.96 246.88 132.998C246.787 133.039 246.698 133.081 246.605 133.119C246.26 133.275 245.913 133.424 245.565 133.565C244.319 134.079 243.046 134.523 241.751 134.894C241.692 134.912 241.63 134.929 241.569 134.946C241.014 135.102 240.457 135.244 239.896 135.372C238.914 135.601 237.924 135.787 236.925 135.933H236.918C236.797 135.95 236.68 135.967 236.56 135.985C236.55 135.985 236.539 135.988 236.525 135.988C236.525 135.992 236.525 135.992 236.522 135.988C236.391 136.005 236.257 136.023 236.126 136.04C236.117 136.043 236.108 136.044 236.099 136.044C235.975 136.061 235.847 136.075 235.723 136.089C235.589 136.102 235.455 136.116 235.321 136.13C235.217 136.14 235.114 136.151 235.011 136.161C235.002 136.164 234.993 136.165 234.983 136.165C234.89 136.172 234.797 136.182 234.704 136.189H234.691C234.612 136.196 234.529 136.203 234.45 136.21C233.489 136.286 232.525 136.32 231.548 136.32C230.491 136.32 229.441 136.279 228.405 136.189H228.395C228.171 136.168 227.951 136.147 227.73 136.127C227.672 136.12 227.617 136.116 227.558 136.109C227.548 136.109 227.534 136.106 227.524 136.106C227.507 136.102 227.489 136.102 227.469 136.099C227.459 136.099 227.45 136.098 227.441 136.095C227.365 136.089 227.29 136.078 227.21 136.071L226.952 136.04C226.866 136.03 226.78 136.016 226.694 136.005C226.673 136.002 226.656 136.002 226.636 135.999C226.574 135.992 226.512 135.981 226.45 135.971C226.419 135.967 226.388 135.964 226.36 135.96C226.298 135.95 226.24 135.943 226.178 135.933H226.174C224.285 135.659 222.421 135.237 220.598 134.67C220.501 134.638 220.405 134.611 220.309 134.58C220.305 134.58 220.302 134.576 220.298 134.576C220.271 134.566 220.24 134.559 220.212 134.548C219.954 134.465 219.699 134.379 219.445 134.289C219.093 134.171 218.746 134.043 218.398 133.912C218.305 133.873 218.212 133.839 218.119 133.801C217.93 133.728 217.744 133.652 217.558 133.576C217.241 133.448 216.925 133.313 216.612 133.174C216.319 133.043 216.03 132.911 215.741 132.773C215.734 132.769 215.723 132.769 215.716 132.763C215.651 132.731 215.586 132.7 215.524 132.669H215.52C213.935 131.904 212.406 131.026 210.945 130.042C210.477 129.727 210.016 129.402 209.562 129.066C209.197 128.793 208.839 128.516 208.481 128.232C206.715 126.82 205.08 125.249 203.596 123.539V123.535C203.489 123.418 203.389 123.297 203.286 123.176C203.269 123.158 203.255 123.141 203.241 123.127C203.176 123.047 203.114 122.971 203.049 122.895V122.892C202.963 122.791 202.877 122.688 202.794 122.584C202.773 122.559 202.756 122.539 202.739 122.518V122.514C202.67 122.431 202.605 122.348 202.536 122.262C202.501 122.22 202.47 122.179 202.436 122.137V122.134C202.233 121.878 202.037 121.622 201.84 121.359C201.789 121.289 201.737 121.217 201.682 121.144C201.434 120.808 201.193 120.466 200.959 120.123V120.119C200.87 119.991 200.784 119.86 200.694 119.732C200.608 119.6 200.522 119.469 200.436 119.337C200.35 119.199 200.26 119.064 200.174 118.925L200.164 118.905C200.078 118.773 199.992 118.635 199.909 118.5C199.844 118.389 199.778 118.282 199.713 118.174C199.672 118.102 199.627 118.029 199.586 117.953C199.57 117.929 199.555 117.905 199.541 117.88C199.445 117.711 199.348 117.541 199.252 117.371C199.138 117.174 199.028 116.973 198.918 116.773C198.877 116.69 198.832 116.607 198.787 116.524C198.77 116.496 198.756 116.468 198.742 116.44C198.691 116.344 198.639 116.243 198.591 116.143C198.539 116.046 198.488 115.946 198.436 115.845C198.388 115.748 198.336 115.648 198.288 115.547C198.25 115.471 198.216 115.395 198.178 115.319C198.175 115.313 198.172 115.307 198.167 115.302C198.15 115.264 198.133 115.229 198.119 115.194C198.115 115.189 198.112 115.183 198.109 115.177C198.071 115.101 198.037 115.021 197.999 114.945C197.951 114.845 197.906 114.741 197.858 114.641C197.827 114.571 197.792 114.499 197.761 114.426C197.716 114.326 197.668 114.225 197.627 114.122C197.579 114.018 197.534 113.914 197.489 113.807C197.476 113.781 197.465 113.754 197.455 113.727C197.431 113.679 197.414 113.63 197.393 113.582C197.338 113.454 197.283 113.322 197.231 113.194C197.169 113.049 197.111 112.9 197.056 112.754C197 112.619 196.949 112.481 196.897 112.343L196.877 112.294C196.074 110.17 195.466 107.977 195.059 105.742V105.739C194.829 104.463 194.665 103.176 194.567 101.883C194.563 101.811 194.556 101.742 194.553 101.672C194.491 100.797 194.463 99.9176 194.463 99.0351C194.463 98.644 194.47 98.2563 194.481 97.8687C194.721 89.7618 197.596 81.9572 202.667 75.6491C202.777 75.5106 202.887 75.3722 203 75.2337C203.114 75.0953 203.231 74.9603 203.345 74.8253C207.118 70.3822 211.878 66.8926 217.239 64.638C222.6 62.3835 228.413 61.4269 234.209 61.8455C240.005 62.2642 245.622 64.0462 250.608 67.0481C255.594 70.0499 259.808 74.1875 262.911 79.1274C263.08 79.3973 263.248 79.6708 263.41 79.9442C263.575 80.2211 263.734 80.4979 263.892 80.7783C267.011 86.3516 268.645 92.6403 268.636 99.035Z" fill="#F2F2F2" fill-opacity="0.5"/>
<path d="M233.022 74.6466C226.924 76.2199 220.674 77.1268 214.382 77.3515C213.431 77.4036 212.477 77.3971 211.526 77.332C209.437 77.1553 207.648 76.4951 205.655 76.1344C204.697 75.9614 203.629 75.835 202.665 75.6481C202.888 75.37 203.115 75.0954 203.345 74.8242C205.425 75.0009 207.538 75.5793 209.643 75.848C213.221 76.3055 217.23 75.795 219.942 74.536C221.258 73.9251 222.266 73.1626 223.578 72.5489C223.756 72.4569 223.949 72.3974 224.148 72.3732C224.526 72.3618 224.9 72.4592 225.225 72.654C227.425 73.7707 230.619 74.6783 233.584 74.1789C233.805 74.3528 233.385 74.5509 233.022 74.6466Z" fill="white"/>
<path d="M246.142 78.5765C246.169 78.5716 246.197 78.5677 246.224 78.563C246.11 78.492 246.002 78.4108 245.903 78.3203L246.142 78.5765Z" fill="white"/>
<path d="M263.891 80.7798C262.653 80.8793 261.408 80.9534 260.157 81.002C259.206 81.0537 258.252 81.0471 257.301 80.9825C255.212 80.8049 253.422 80.1456 251.43 79.7849C249.603 79.4548 247.383 79.2958 246.224 78.5631C249.221 78.0415 252.327 79.1033 255.417 79.4985C257.917 79.8076 260.452 79.6818 262.909 79.1266C263.251 79.6677 263.579 80.2188 263.891 80.7798Z" fill="white"/>
<path d="M227.367 115.351C233.519 115.351 238.506 110.225 238.506 103.902C238.506 97.5788 233.519 92.4529 227.367 92.4529C221.215 92.4529 216.228 97.5788 216.228 103.902C216.228 110.225 221.215 115.351 227.367 115.351Z" fill="#FFB6B6"/>
<path d="M248.911 131.987C248.615 132.15 248.316 132.306 248.016 132.454C247.909 132.506 247.799 132.558 247.692 132.614C247.603 132.655 247.513 132.7 247.424 132.742C247.396 132.756 247.372 132.766 247.348 132.78C247.273 132.814 247.2 132.849 247.124 132.884C247.042 132.922 246.959 132.96 246.88 132.998C246.787 133.039 246.698 133.081 246.605 133.119C246.26 133.275 245.913 133.424 245.565 133.565C244.319 134.079 243.046 134.523 241.751 134.894C241.692 134.912 241.631 134.929 241.569 134.946C241.014 135.102 240.457 135.244 239.896 135.372C238.914 135.601 237.924 135.787 236.925 135.933H236.918C236.797 135.95 236.68 135.967 236.56 135.985C236.55 135.985 236.539 135.988 236.525 135.988C236.525 135.992 236.525 135.992 236.522 135.988C236.391 136.005 236.257 136.023 236.126 136.04C236.117 136.043 236.108 136.044 236.099 136.043C235.975 136.061 235.847 136.075 235.723 136.088C235.589 136.102 235.455 136.116 235.321 136.13C235.217 136.14 235.114 136.151 235.011 136.161C235.002 136.164 234.993 136.165 234.983 136.165C234.89 136.172 234.797 136.182 234.704 136.189H234.691C234.612 136.196 234.529 136.203 234.45 136.21C233.489 136.286 232.525 136.32 231.548 136.32C230.491 136.32 229.441 136.279 228.405 136.189H228.395C228.171 136.168 227.951 136.147 227.73 136.127C227.672 136.12 227.617 136.116 227.558 136.109C227.548 136.109 227.534 136.106 227.524 136.106C227.507 136.102 227.489 136.102 227.469 136.099C227.459 136.099 227.45 136.098 227.441 136.095C227.365 136.088 227.29 136.078 227.21 136.071L226.952 136.04C226.866 136.03 226.78 136.016 226.694 136.005C226.673 136.002 226.656 136.002 226.636 135.999C226.574 135.992 226.512 135.981 226.45 135.971C226.419 135.967 226.388 135.964 226.36 135.96C226.298 135.95 226.24 135.943 226.178 135.933H226.174C224.285 135.659 222.421 135.237 220.598 134.669C220.501 134.638 220.405 134.611 220.309 134.58C220.753 132.495 221.668 130.542 222.983 128.87C224.298 127.198 225.978 125.853 227.892 124.937C227.419 124.484 227.091 123.898 226.952 123.255C226.863 122.841 226.856 122.413 226.931 121.996C227.007 121.579 227.164 121.181 227.393 120.825C227.84 120.136 228.54 119.653 229.341 119.483L234.443 118.41C235.264 118.249 236.115 118.42 236.812 118.887C237.508 119.353 237.993 120.078 238.161 120.902C238.213 121.154 238.236 121.412 238.229 121.67C243.142 124.958 246.677 128.367 248.911 131.987Z" fill="#ABABAB"/>
<path d="M257.174 98.9365C255.28 96.7165 254.38 93.7712 252.866 91.2504C251.353 88.7295 248.719 86.4733 245.936 87.0599C244.018 87.4643 242.535 89.1662 241.785 91.0635C241.035 92.9608 240.894 95.0532 240.762 97.103C240.809 92.8905 238.049 88.8069 234.246 87.4627C230.444 86.1186 225.894 87.6179 223.504 91.0021C222.462 90.0305 221.101 89.4772 219.679 89.4472C218.258 89.4172 216.875 89.9126 215.793 90.8394C213.656 92.7598 213.183 96.415 214.755 98.8645C216.326 101.314 219.73 102.227 222.228 100.868L223.111 101.685C222.614 103.433 223.578 105.497 225.198 106.155C226.512 106.689 228.367 106.6 228.858 107.986C229.202 108.955 228.56 109.989 227.877 110.733C227.194 111.478 226.383 112.246 226.301 113.276C226.177 114.83 227.774 115.919 229.226 116.247C232.727 117.038 236.612 115.407 238.631 112.301C238.669 112.241 238.712 112.181 238.757 112.121C239.89 110.665 240.715 108.992 241.182 107.205C241.65 105.418 241.75 103.554 241.477 101.726C241.364 101.008 241.478 100.474 241.97 100.304C244.099 99.5689 250.061 101.112 251.866 102.506C253.671 103.9 255.116 105.745 256.854 107.229C258.592 108.713 260.807 109.858 263.014 109.454C264.782 109.13 266.286 107.84 267.297 106.284C268.309 104.728 268.891 102.913 269.412 101.111C265.503 103.381 260.154 102.431 257.174 98.9365Z" fill="#2F2E41"/>
<path d="M28.5114 75.8463C28.5114 76.6873 28.5389 77.5283 28.5975 78.3624C28.6594 79.3592 28.7661 80.3491 28.9107 81.332C29.3966 84.6416 30.3253 87.8699 31.6715 90.9293C31.7403 91.0816 31.8092 91.2339 31.878 91.3862L31.9813 91.6146C32.0157 91.6908 32.0536 91.7669 32.088 91.8396C32.1362 91.94 32.1809 92.0369 32.2291 92.1338C32.2877 92.2549 32.3462 92.376 32.4081 92.4972C32.415 92.511 32.4219 92.5283 32.4322 92.5456C32.4839 92.6495 32.5321 92.7498 32.5871 92.8537C32.5973 92.8763 32.6088 92.8982 32.6216 92.9194C32.6801 93.0371 32.742 93.1582 32.804 93.2759C32.8729 93.4005 32.9383 93.5286 33.0071 93.6532C33.1723 93.9612 33.3445 94.2658 33.52 94.5703C33.5716 94.6603 33.6233 94.7503 33.6784 94.8403C33.7266 94.9233 33.7748 95.0064 33.8264 95.0895C33.8608 95.1449 33.8952 95.2037 33.9297 95.2591C33.9847 95.3525 34.0398 95.4425 34.0983 95.5359C34.2257 95.7401 34.3565 95.9443 34.4839 96.1485H34.4873C34.5458 96.242 34.6078 96.3354 34.6698 96.4254V96.4289C34.8522 96.7058 35.0415 96.9826 35.2309 97.256L35.2322 97.2563L35.2333 97.257L35.2341 97.2582L35.2343 97.2595C35.3858 97.481 35.5441 97.6956 35.699 97.9102V97.9136C35.8023 98.0486 35.9021 98.187 36.0054 98.322C36.088 98.4328 36.1741 98.547 36.2601 98.6577C36.2773 98.682 36.298 98.7027 36.3152 98.727V98.7304C36.3393 98.7616 36.3634 98.7893 36.3875 98.8204C36.7524 99.2911 37.1287 99.7514 37.5166 100.201L37.5785 100.274C37.5992 100.298 37.6233 100.322 37.6439 100.35C37.6784 100.388 37.7093 100.426 37.7438 100.464C37.7748 100.502 37.8092 100.541 37.8436 100.579C39.8653 102.868 42.1577 104.901 44.6698 106.632C45.0037 106.864 45.3445 107.089 45.6853 107.307C45.7713 107.362 45.8574 107.418 45.9434 107.469C45.9675 107.487 45.9951 107.504 46.0192 107.521C46.0674 107.549 46.1121 107.577 46.1603 107.608C46.2051 107.636 46.2498 107.663 46.298 107.691C46.4804 107.805 46.6663 107.916 46.8522 108.027C46.897 108.054 46.9452 108.082 46.9934 108.11C47.0381 108.134 47.0863 108.162 47.1345 108.189C47.1345 108.193 47.1345 108.193 47.1379 108.193H47.1414V108.196H47.1448C47.3755 108.331 47.6096 108.463 47.8471 108.591C47.9744 108.66 48.1052 108.733 48.236 108.798C48.5321 108.961 48.8316 109.117 49.1311 109.266C49.2378 109.318 49.3479 109.37 49.4546 109.425C49.5441 109.466 49.6336 109.511 49.7231 109.553C49.7507 109.567 49.7748 109.577 49.7989 109.591C49.8746 109.626 49.9469 109.66 50.0226 109.695C50.1052 109.733 50.1879 109.771 50.267 109.809C50.36 109.851 50.4495 109.892 50.5424 109.93C50.8867 110.086 51.2343 110.235 51.582 110.377C52.828 110.89 54.1013 111.334 55.3961 111.706C55.4546 111.723 55.5166 111.74 55.5786 111.758C56.1328 111.913 56.6905 112.055 57.2516 112.183C58.2326 112.412 59.2229 112.599 60.2223 112.744H60.2292C60.3497 112.761 60.4667 112.779 60.5872 112.796C60.5975 112.796 60.6079 112.799 60.6216 112.799C60.6216 112.803 60.6216 112.803 60.6251 112.799C60.7559 112.817 60.8901 112.834 61.0209 112.851C61.0299 112.854 61.0392 112.855 61.0485 112.855C61.1724 112.872 61.2998 112.886 61.4237 112.9C61.5579 112.914 61.6922 112.927 61.8264 112.941C61.9297 112.952 62.033 112.962 62.1363 112.972C62.1451 112.976 62.1545 112.977 62.1638 112.976C62.2567 112.983 62.3497 112.993 62.4426 113H62.4564C62.5356 113.007 62.6182 113.014 62.6974 113.021C63.6578 113.097 64.6216 113.132 65.5993 113.132C66.6561 113.132 67.706 113.09 68.7421 113H68.7524C68.9762 112.979 69.1965 112.959 69.4168 112.938C69.4753 112.931 69.5304 112.927 69.5889 112.921C69.5993 112.921 69.613 112.917 69.6234 112.917C69.6406 112.914 69.6578 112.914 69.6784 112.91C69.6877 112.911 69.697 112.909 69.706 112.907C69.7817 112.9 69.8574 112.889 69.9366 112.882L70.1948 112.851C70.2808 112.841 70.3669 112.827 70.453 112.817C70.4736 112.813 70.4908 112.813 70.5115 112.81C70.5734 112.803 70.6354 112.792 70.6974 112.782C70.7284 112.779 70.7593 112.775 70.7869 112.772C70.8488 112.761 70.9074 112.754 70.9693 112.744H70.9728C72.8617 112.471 74.7263 112.048 76.5494 111.481C76.6458 111.45 76.7421 111.422 76.8385 111.391C76.842 111.391 76.8454 111.387 76.8489 111.387C76.8764 111.377 76.9074 111.37 76.9349 111.36C77.1931 111.277 77.4478 111.19 77.7025 111.1C78.0537 110.982 78.4013 110.854 78.749 110.723C78.842 110.685 78.9349 110.65 79.0279 110.612C79.2172 110.539 79.4031 110.463 79.589 110.387C79.9057 110.259 80.2223 110.124 80.5356 109.986C80.8282 109.854 81.1174 109.723 81.4065 109.584C81.4134 109.581 81.4237 109.581 81.4306 109.574C81.496 109.543 81.5614 109.511 81.6234 109.48H81.6268C83.2121 108.715 84.7409 107.838 86.2017 106.853C86.6699 106.538 87.1311 106.213 87.5855 105.877C87.9504 105.604 88.3084 105.327 88.6664 105.043C90.4326 103.631 92.0675 102.06 93.5511 100.35V100.347C93.6578 100.229 93.7576 100.108 93.8609 99.9868C93.8781 99.9695 93.8919 99.9522 93.9057 99.9383C93.9711 99.8587 94.033 99.7826 94.0984 99.7065V99.703C94.1845 99.6026 94.2706 99.4988 94.3532 99.395C94.3738 99.3708 94.3911 99.35 94.4083 99.3292V99.3257C94.4771 99.2427 94.5425 99.1596 94.6114 99.0731C94.6458 99.0316 94.6768 98.99 94.7112 98.9485V98.945C94.9143 98.6889 95.1105 98.4328 95.3067 98.1698C95.3583 98.1005 95.41 98.0279 95.4651 97.9552C95.7129 97.6195 95.9539 97.2768 96.188 96.9342V96.9307C96.2775 96.8027 96.3635 96.6712 96.453 96.5431C96.5391 96.4116 96.6251 96.2801 96.7112 96.1486C96.7972 96.0101 96.8867 95.8751 96.9728 95.7367L96.9831 95.7159C97.0692 95.5844 97.1552 95.446 97.2379 95.311C97.3033 95.2002 97.3687 95.0929 97.4341 94.9856C97.4754 94.913 97.5201 94.8403 97.5614 94.7642C97.5776 94.7407 97.5925 94.7165 97.6062 94.6915C97.7026 94.5219 97.799 94.3523 97.8953 94.1827C98.0089 93.9854 98.1191 93.7847 98.2293 93.584C98.2706 93.5009 98.3153 93.4178 98.3601 93.3348C98.3773 93.3071 98.3911 93.2794 98.4048 93.2517C98.4565 93.1548 98.5081 93.0544 98.5563 92.9541C98.6079 92.8571 98.6596 92.7568 98.7112 92.6564C98.7594 92.5595 98.811 92.4591 98.8592 92.3588C98.8971 92.2826 98.9315 92.2065 98.9694 92.1303C98.972 92.1241 98.9755 92.1183 98.9797 92.113C98.9969 92.075 99.0141 92.0404 99.0279 92.0057C99.0321 92.0005 99.0356 91.9946 99.0382 91.9884C99.0761 91.9123 99.1105 91.8327 99.1484 91.7565C99.1966 91.6562 99.2413 91.5523 99.2895 91.452C99.3205 91.3828 99.3549 91.3101 99.3859 91.2374C99.4306 91.137 99.4788 91.0367 99.5201 90.9328C99.5683 90.829 99.6131 90.7252 99.6578 90.6179C99.6707 90.592 99.6822 90.5654 99.6923 90.5383C99.7163 90.4898 99.7336 90.4414 99.7542 90.3929C99.8093 90.2649 99.8644 90.1333 99.916 90.0053C99.978 89.8599 100.036 89.7111 100.092 89.5657C100.147 89.4308 100.198 89.2923 100.25 89.1539L100.271 89.1054C101.073 86.9814 101.681 84.7885 102.088 82.5537V82.5503C102.318 81.2744 102.482 79.9875 102.58 78.6947C102.584 78.622 102.591 78.5528 102.594 78.4836C102.656 77.608 102.684 76.7289 102.684 75.8463C102.684 75.4552 102.677 75.0676 102.666 74.68C102.426 66.573 99.5509 58.7685 94.4805 52.4603C94.3704 52.3219 94.2602 52.1835 94.1466 52.045C94.033 51.9066 93.916 51.7716 93.8024 51.6366C90.0288 47.1934 85.2696 43.7039 79.9085 41.4493C74.5474 39.1947 68.7344 38.2382 62.9382 38.6568C57.1419 39.0754 51.5246 40.8575 46.5391 43.8593C41.5535 46.8612 37.3393 50.9988 34.236 55.9386C34.0674 56.2086 33.8987 56.482 33.7369 56.7555C33.5717 57.0323 33.4133 57.3092 33.255 57.5896C30.1364 63.1629 28.5025 69.4516 28.5114 75.8463Z" fill="#F2F2F2" fill-opacity="0.5"/>
<path d="M64.1252 51.4579C70.2235 53.0312 76.4729 53.9381 82.7649 54.1628C83.7163 54.2149 84.6701 54.2084 85.6207 54.1433C87.7099 53.9666 89.4994 53.3064 91.4924 52.9456C92.4505 52.7727 93.5177 52.6462 94.4823 52.4593C94.2594 52.1813 94.0325 51.9067 93.8016 51.6355C91.7217 51.8122 89.6094 52.3905 87.5046 52.6593C83.9264 53.1167 79.9174 52.6063 77.2049 51.3473C75.8889 50.7364 74.8808 49.9739 73.5694 49.3602C73.3911 49.2682 73.1979 49.2087 72.9988 49.1845C72.6207 49.1731 72.2472 49.2705 71.9223 49.4653C69.7222 50.582 66.5279 51.4895 63.5629 50.9902C63.3419 51.1641 63.7617 51.3621 64.1252 51.4579Z" fill="white"/>
<path d="M51.0048 55.3878C50.9777 55.3828 50.9506 55.379 50.9235 55.3742C51.0374 55.3033 51.1446 55.222 51.2439 55.1315L51.0048 55.3878Z" fill="white"/>
<path d="M33.2557 57.5911C34.494 57.6906 35.7388 57.7647 36.9901 57.8133C37.9416 57.865 38.8953 57.8584 39.846 57.7938C41.9351 57.6162 43.7246 56.9569 45.7176 56.5962C47.5441 56.2661 49.7637 56.1071 50.9234 55.3744C47.9261 54.8527 44.8205 55.9146 41.7298 56.3098C39.2298 56.6189 36.6955 56.493 34.2379 55.9378C33.8957 56.479 33.5683 57.0301 33.2557 57.5911Z" fill="white"/>
<path d="M48.2361 108.799C48.5321 108.961 48.8316 109.117 49.1311 109.266C49.2378 109.318 49.3479 109.37 49.4546 109.425C49.5441 109.467 49.6336 109.512 49.7231 109.553C49.7507 109.567 49.7748 109.577 49.7989 109.591C49.8746 109.626 49.9469 109.66 50.0226 109.695C50.1052 109.733 50.1879 109.771 50.267 109.809C50.36 109.851 50.4495 109.892 50.5424 109.93C50.8867 110.086 51.2343 110.235 51.582 110.377C52.828 110.89 54.1013 111.334 55.3961 111.706C55.4547 111.723 55.5166 111.74 55.5786 111.758C56.1328 111.913 56.6905 112.055 57.2516 112.183C58.2326 112.412 59.2229 112.599 60.2223 112.744H60.2292C60.3497 112.761 60.4667 112.779 60.5872 112.796C60.5975 112.796 60.6079 112.799 60.6216 112.799C60.6216 112.803 60.6216 112.803 60.6251 112.799C60.7559 112.817 60.8901 112.834 61.0209 112.851C61.0299 112.854 61.0392 112.855 61.0485 112.855C61.1724 112.872 61.2998 112.886 61.4237 112.9C61.5579 112.914 61.6922 112.928 61.8265 112.941C61.9297 112.952 62.033 112.962 62.1363 112.973C62.1451 112.976 62.1545 112.977 62.1638 112.976C62.2567 112.983 62.3497 112.993 62.4426 113H62.4564C62.5356 113.007 62.6182 113.014 62.6974 113.021C63.6578 113.097 64.6216 113.132 65.5993 113.132C66.6561 113.132 67.706 113.09 68.7421 113H68.7525C68.9762 112.979 69.1965 112.959 69.4168 112.938C69.4753 112.931 69.5304 112.928 69.5889 112.921C69.5993 112.921 69.613 112.917 69.6234 112.917C69.6406 112.914 69.6578 112.914 69.6784 112.91C69.6878 112.911 69.6971 112.909 69.706 112.907C69.7817 112.9 69.8575 112.889 69.9366 112.883L70.1948 112.851C70.2809 112.841 70.3669 112.827 70.453 112.817C70.4736 112.813 70.4908 112.813 70.5115 112.81C70.5735 112.803 70.6354 112.793 70.6974 112.782C70.7284 112.779 70.7593 112.775 70.7869 112.772C70.8488 112.761 70.9074 112.754 70.9693 112.744H70.9728C72.8617 112.471 74.7263 112.048 76.5494 111.481C76.6458 111.45 76.7421 111.422 76.8385 111.391C76.3941 109.307 75.479 107.353 74.1641 105.681C72.8492 104.009 71.1696 102.664 69.255 101.749C69.7286 101.295 70.0559 100.709 70.1948 100.066C70.2842 99.6522 70.2913 99.2244 70.2156 98.8074C70.14 98.3905 69.9832 97.9927 69.7542 97.6368C69.3075 96.9472 68.6067 96.4642 67.8058 96.294L62.7043 95.221C61.883 95.0601 61.0318 95.2315 60.3356 95.6982C59.6394 96.1648 59.1546 96.8889 58.9865 97.713C58.9345 97.9656 58.9114 98.2234 58.9177 98.4813C54.0054 101.769 50.4701 105.178 48.2361 108.799Z" fill="#ABABAB"/>
<path d="M68.418 91.7587C75.2761 91.7587 80.8357 86.169 80.8357 79.2738C80.8357 72.3786 75.2761 66.7889 68.418 66.7889C61.56 66.7889 56.0004 72.3786 56.0004 79.2738C56.0004 86.169 61.56 91.7587 68.418 91.7587Z" fill="#9E616A"/>
<path d="M66.6534 91.0914C63.5447 91.9355 60.1174 90.8132 57.6913 88.6843C55.2652 86.5555 53.7476 83.5389 52.8732 80.4229C52.2328 78.1409 51.9291 75.6077 52.9398 73.4653C53.9504 71.323 56.6703 69.8775 58.7687 70.9597C57.4742 69.4434 58.1209 66.9354 59.6328 65.6382C61.1446 64.341 63.2207 63.9691 65.1979 63.7658C68.0674 63.4707 71.0315 63.4377 73.762 64.3724C76.4926 65.3071 78.9736 67.3505 79.8282 70.1204C80.701 70.529 81.6839 70.635 82.6231 70.4218C83.5622 70.2087 84.4045 69.6883 85.0181 68.9423C85.1763 69.7991 85.0492 70.6844 84.6566 71.4613C84.2639 72.2381 83.6276 72.8633 82.846 73.2399L87.0298 71.8761C87.7493 73.4074 86.4885 75.3025 84.8763 75.7929C83.264 76.2833 81.5237 75.7473 79.9937 75.0389C78.4638 74.3304 76.9811 73.4348 75.3193 73.1585C73.6574 72.8822 71.7054 73.4191 70.9367 74.926C70.5341 75.7152 70.5131 76.6396 70.2793 77.4949C70.0456 78.3502 69.4534 79.237 68.5739 79.307C68.0183 79.3512 67.4743 79.0536 66.9202 79.1145C66.5801 79.1818 66.267 79.3473 66.0191 79.5909C65.7712 79.8344 65.5993 80.1453 65.5245 80.4855C65.3865 81.1683 65.3849 81.8718 65.5195 82.5552L66.5823 90.7225L66.6534 91.0914Z" fill="#2F2E41"/>
</g>
<defs>
<clipPath id="clip0_1_479">
<rect width="278.603" height="218" fill="white"/>
</clipPath>
</defs>
</svg>
